<svg width="100" height="100" viewBox="0 0 100 100" fill="none" xmlns="http://www.w3.org/2000/svg">
<path d="M94.4595 81.0878C95.8926 81.0858 97.0509 79.3811 97.0479 77.2785C97.045 75.1758 95.8819 73.4744 94.4489 73.4764L78.8864 73.4982C77.4566 73.5002 76.2902 71.794 76.2873 69.6961C76.2844 67.5982 77.4459 65.8888 78.8757 65.8868L94.4382 65.865C95.8713 65.863 97.0296 64.1584 97.0266 62.0557C97.0237 59.9531 95.8606 58.2517 94.4276 58.2537L78.8651 58.2754C77.4353 58.2774 76.2689 56.5712 76.266 54.4734C76.2631 52.3755 77.4246 50.666 78.8544 50.664L94.4169 50.6423C95.85 50.6403 97.0083 48.9356 97.0054 46.833C97.0024 44.7303 95.8393 43.0289 94.4063 43.0309C77.4208 43.0546 78.6001 43.0256 78.0236 43.118C77.1273 42.8702 68.0253 42.7184 62.9082 48.6693C61.9792 49.7505 61.1946 50.9837 60.5627 52.3499C60.4073 52.5237 60.2633 52.7237 60.134 52.9522C58.4311 55.954 54.7367 58.3092 51.7231 58.3134C43.0316 58.3255 36.2022 59.1191 26.1713 52.486C24.3702 51.2944 23.0061 50.7421 21.8811 50.7437C17.5414 50.7498 14.0178 55.8758 14.0267 62.1718C14.0355 68.4678 17.5734 73.5839 21.913 73.5779C23.0381 73.5763 24.4006 73.0202 26.1984 71.8236C36.3505 65.0695 43.6549 65.9361 51.7337 65.9248C54.7474 65.9205 58.4484 68.2654 60.1596 71.2624C60.2896 71.4905 60.4341 71.6901 60.59 71.8635C64.1137 79.4253 71.3834 81.1201 77.6001 81.1114C104.398 81.0739 90.0237 81.094 94.4595 81.0878Z" fill="#5B5B5B"/>
<path fill-rule="evenodd" clip-rule="evenodd" d="M53.9368 44.6726C70.4193 39.3936 69.6983 22.5435 60.6433 12.0513C51.4465 1.39387 37.6867 1.23885 28.3563 12.0513C19.3501 22.4868 18.5196 39.3743 35.0627 44.6726C38.0925 46.6352 40.4089 50.4893 40.4089 53.6554C40.4089 54.5792 40.4168 55.4839 40.4246 56.3744C40.4972 64.6717 40.5591 71.7423 34.1065 81.6671C32.8255 83.6403 32.2273 85.1336 32.2273 86.3691C32.2273 91.1281 37.732 95 44.4998 95C51.2676 95 56.7723 91.1281 56.7723 86.3691C56.7723 85.1336 56.174 83.6403 54.8931 81.6671C48.4001 71.6806 48.4833 64.2127 48.5704 56.3901C48.5805 55.4848 48.5906 54.5747 48.5906 53.6554C48.5906 50.4893 50.9071 46.6352 53.9368 44.6726ZM61 25.8279C61 32.7314 56.299 38.3279 50.5 38.3279C50.1599 38.3279 49.8235 38.3086 49.4917 38.271C49.011 38.3083 48.5119 38.3279 48 38.3279C44.4164 38.3279 41.4617 37.3661 41.0492 36.1259C39.2417 34.2416 38 30.3379 38 25.8279C38 21.8609 38.9606 18.363 40.4221 16.2959C41.4566 14.4179 44.7724 13.0896 48.6756 13.1656C49.3637 13.179 50.0318 13.2353 50.6709 13.3295C56.3911 13.4381 61 18.9923 61 25.8279Z" fill="#5B5B5B"/>
</svg>
